<svg width="700" height="410" viewBox="0 0 680 410" xmlns="http://www.w3.org/2000/svg" font-family="'Pretendard',-apple-system,sans-serif">
<rect width="680" height="410" fill="#ffffff"/>
<defs>
<marker id="arrow" viewBox="0 0 10 10" refX="8" refY="5" markerWidth="6" markerHeight="6" orient="auto-start-reverse"><path d="M2 1L8 5L2 9" fill="none" stroke="context-stroke" stroke-width="1.5" stroke-linecap="round" stroke-linejoin="round"/></marker>
</defs>
<text x="40" y="22" font-size="14" font-weight="600" fill="#1a1a1a">libregmap 계층 구조</text>

<rect x="40" y="150" width="64" height="52" rx="8" fill="#F1EFE8" stroke="#5F5E5A" stroke-width="0.5"/>
<text x="72" y="181" font-size="14" font-weight="500" fill="#2C2C2A" text-anchor="middle">PS</text>

<rect x="576" y="150" width="64" height="52" rx="8" fill="#FAEEDA" stroke="#854F0B" stroke-width="0.5"/>
<text x="608" y="173" font-size="13" font-weight="500" fill="#633806" text-anchor="middle">PL</text>
<text x="608" y="190" font-size="11" fill="#854F0B" text-anchor="middle">카운터</text>

<rect x="130" y="60" width="380" height="250" rx="16" fill="#E6F1FB" stroke="#185FA5" stroke-width="0.5"/>
<text x="150" y="84" font-size="14" font-weight="500" fill="#0C447C">lib_axil_regmap (top)</text>

<rect x="150" y="150" width="92" height="52" rx="8" fill="#E1F5EE" stroke="#0F6E56" stroke-width="0.5"/>
<text x="196" y="173" font-size="11" fill="#085041" text-anchor="middle">axi4_lite_if</text>
<text x="196" y="189" font-size="11" fill="#0F6E56" text-anchor="middle">bus</text>

<rect x="272" y="120" width="106" height="112" rx="8" fill="#E1F5EE" stroke="#0F6E56" stroke-width="0.5"/>
<text x="325" y="148" font-size="11" fill="#085041" text-anchor="middle">lib_axil</text>
<text x="325" y="164" font-size="11" fill="#085041" text-anchor="middle">_protocol</text>
<text x="325" y="192" font-size="11" fill="#0F6E56" text-anchor="middle">AXI FSM</text>
<text x="325" y="208" font-size="11" fill="#0F6E56" text-anchor="middle">regfile</text>

<rect x="408" y="120" width="86" height="112" rx="8" fill="#E1F5EE" stroke="#0F6E56" stroke-width="0.5"/>
<text x="451" y="156" font-size="11" fill="#085041" text-anchor="middle">lib_reg</text>
<text x="451" y="172" font-size="11" fill="#085041" text-anchor="middle">_glue</text>
<text x="451" y="200" font-size="11" fill="#0F6E56" text-anchor="middle">배선</text>

<line x1="104" y1="176" x2="148" y2="176" stroke="#5F5E5A" stroke-width="1.5" marker-end="url(#arrow)"/>
<line x1="242" y1="176" x2="270" y2="176" stroke="#5F5E5A" stroke-width="1.5" marker-end="url(#arrow)"/>
<line x1="386" y1="160" x2="406" y2="160" stroke="#5F5E5A" stroke-width="1.5" marker-end="url(#arrow)"/>
<text x="396" y="150" font-size="11" fill="#5F5E5A" text-anchor="middle">reg_o</text>
<line x1="406" y1="195" x2="386" y2="195" stroke="#5F5E5A" stroke-width="1.5" marker-end="url(#arrow)"/>
<text x="396" y="224" font-size="11" fill="#5F5E5A" text-anchor="middle">reg_i</text>
<line x1="494" y1="176" x2="574" y2="176" stroke="#5F5E5A" stroke-width="1.5" marker-end="url(#arrow)"/>

<rect x="200" y="340" width="240" height="52" rx="8" fill="#EEEDFE" stroke="#534AB7" stroke-width="0.5"/>
<text x="320" y="362" font-size="13" font-weight="500" fill="#3C3489" text-anchor="middle">lib_axil_reg_pkg</text>
<text x="320" y="380" font-size="11" fill="#534AB7" text-anchor="middle">레이아웃 단일 출처 (참조)</text>

<line x1="196" y1="202" x2="280" y2="340" stroke="#888780" stroke-width="0.5" stroke-dasharray="4 3"/>
<line x1="325" y1="232" x2="320" y2="338" stroke="#888780" stroke-width="0.5" stroke-dasharray="4 3"/>
<line x1="451" y1="232" x2="370" y2="340" stroke="#888780" stroke-width="0.5" stroke-dasharray="4 3"/>
</svg>
